<?xml version="1.0" encoding="UTF-8"?>
<svg xmlns="http://www.w3.org/2000/svg" id="Layer_1" data-name="Layer 1" viewBox="0 0 24 24" width="512" height="512">
<path d="M7.5,0H3.5C1.57,0,0,1.57,0,3.5V7.5c0,1.93,1.57,3.5,3.5,3.5H7.5c1.93,0,3.5-1.57,3.5-3.5V3.5c0-1.93-1.57-3.5-3.5-3.5Zm2.5,7.5c0,1.38-1.12,2.5-2.5,2.5H3.5c-1.38,0-2.5-1.12-2.5-2.5V3.5c0-1.38,1.12-2.5,2.5-2.5H7.5c1.38,0,2.5,1.12,2.5,2.5V7.5Zm10.5,5.5h-4c-1.93,0-3.5,1.57-3.5,3.5v4c0,1.93,1.57,3.5,3.5,3.5h4c1.93,0,3.5-1.57,3.5-3.5v-4c0-1.93-1.57-3.5-3.5-3.5Zm2.5,7.5c0,1.38-1.12,2.5-2.5,2.5h-4c-1.38,0-2.5-1.12-2.5-2.5v-4c0-1.38,1.12-2.5,2.5-2.5h4c1.38,0,2.5,1.12,2.5,2.5v4ZM7.5,13H3.5c-1.93,0-3.5,1.57-3.5,3.5v4c0,1.93,1.57,3.5,3.5,3.5H7.5c1.93,0,3.5-1.57,3.5-3.5v-4c0-1.93-1.57-3.5-3.5-3.5Zm2.5,7.5c0,1.38-1.12,2.5-2.5,2.5H3.5c-1.38,0-2.5-1.12-2.5-2.5v-4c0-1.38,1.12-2.5,2.5-2.5H7.5c1.38,0,2.5,1.12,2.5,2.5v4Zm7.41-10.88c.32,.25,.7,.38,1.09,.38s.77-.13,1.09-.38c.74-.59,4.41-3.68,4.41-6.37,0-1.79-1.35-3.25-3-3.25-1.01,0-1.94,.55-2.5,1.39-.55-.85-1.48-1.39-2.5-1.39-1.65,0-3,1.46-3,3.25,0,2.69,3.67,5.78,4.41,6.37Zm-1.41-8.62c.96,0,1.82,.78,2,1.81,.04,.24,.25,.41,.49,.41s.45-.17,.49-.41c.18-1.03,1.05-1.81,2.02-1.81,1.1,0,2,1.01,2,2.25,0,1.85-2.54,4.38-4.04,5.59-.27,.21-.66,.22-.92,0-1.5-1.2-4.04-3.73-4.04-5.59,0-1.24,.9-2.25,2-2.25Z"/>

</svg>
